<?xml version="1.0" encoding="UTF-8"?>
<svg id="Layer_1" xmlns="http://www.w3.org/2000/svg" version="1.1" viewBox="0 0 600 600">
  <!-- Generator: Adobe Illustrator 30.2.0, SVG Export Plug-In . SVG Version: 2.1.1 Build 12)  -->
  <defs>
    <style>
      .st0 {
        fill: #ec145a;
      }

      .st1 {
        fill: #fff;
      }
    </style>
  </defs>
  <path class="st0" d="M596.73,179.08c-2.02-10.29-4.94-20.27-8.68-29.84-.48-1.23-.67-2.59-1.18-3.81-12.81-30.85-33.85-57.3-59.56-76.36-7.29-5.4-15.07-10.23-23.2-14.49-2.65-1.39-5.55-2.34-8.28-3.59-5.63-2.59-11.24-5.23-17.16-7.22-3.44-1.15-7.08-1.78-10.6-2.71-5.48-1.46-10.93-3.01-16.59-3.91-3.91-.62-7.95-.67-11.93-1.01-5.43-.46-10.85-1.02-16.39-.93-5.77.09-11.63.97-17.47,1.69-4.4.54-8.76.75-13.19,1.67-6.19,1.28-12.4,3.52-18.6,5.57-4.15,1.37-8.29,2.28-12.44,4-6.91,2.88-13.76,6.91-20.62,10.83-3.4,1.94-6.84,3.31-10.21,5.52-10.19,6.67-20.25,14.49-30.09,23.72-9.85-9.27-19.94-17.13-30.15-23.85-3.47-2.28-7-3.71-10.49-5.71-6.78-3.88-13.55-7.88-20.39-10.75-4.24-1.78-8.48-2.74-12.72-4.14-6.14-2.03-12.28-4.24-18.4-5.52-4.47-.94-8.89-1.18-13.33-1.73-5.83-.72-11.67-1.6-17.43-1.69-5.52-.09-10.92.42-16.33.87-3.98.33-8.02.4-11.94,1.01-5.65.89-11.1,2.42-16.58,3.86-3.52.93-7.13,1.55-10.56,2.7-5.96,1.99-11.62,4.61-17.28,7.22-2.69,1.23-5.53,2.16-8.15,3.52-8.13,4.24-15.92,9.06-23.22,14.45-17.19,12.68-32.32,28.65-44.3,47.04-6.81,10.45-12.27,21.84-16.87,33.68-3.49,9-6.63,18.19-8.65,27.82-4.68,22.32-5.17,46.17-.43,70.66,1.93,9.96,5.35,20.06,9.08,30.17h0c5.44,14.75,12.25,29.56,21.9,44.33,20.76,31.72,51.12,65.24,83.74,96.95,54.37,52.84,115.01,100.63,147.99,126.62,6.95,5.49,12.4,9.77,15.88,12.63,5.4,4.42,11.97,6.65,18.57,6.65s13.07-2.21,18.45-6.57l14.13-11.2c24.22-19.09,68.49-53.99,113.68-94.76,22.59-20.38,45.42-42.23,66.08-64.31s39.17-44.37,53.12-65.65c8.16-12.4,14.74-24.88,19.88-37.3,1.01-2.44,1.31-4.84,2.21-7.28h0c8.44-22.85,12.18-45.44,11.93-67.11-.12-10.83-1.24-21.44-3.26-31.73Z"/>
  <path class="st1" d="M151.99,397.28c-5.38,0-8.07-2.17-8.07-6.54,0-1.53.38-3.19,1.16-4.99l89.57-247.21c2.82-6.91,7.93-10.37,15.38-10.37h99.96c7.68,0,12.81,3.46,15.38,10.37l89.57,247.21c.77,1.8,1.16,3.46,1.16,4.99,0,4.36-2.69,6.54-8.07,6.54h-85.35c-5.9,0-9.87-2.94-11.92-8.84l-8.84-26.92c-1.3-3.83-3.6-5.76-6.93-5.76h-69.97c-3.33,0-5.63,1.92-6.91,5.76l-8.84,26.92c-2.06,5.9-6.02,8.84-11.92,8.84h-85.35ZM313.45,283.87c1.53,0,2.69-.44,3.46-1.35.77-.89,1.02-2.11.77-3.64l-14.99-53.44c-.52-1.28-1.41-1.92-2.69-1.92s-2.19.64-2.69,1.92l-15,53.44v1.14c0,1.03.39,1.92,1.16,2.69.77.78,1.78,1.16,3.08,1.16h26.91Z"/>
</svg>